<svg width="528" height="665" viewBox="0 0 528 665" fill="none" xmlns="http://www.w3.org/2000/svg">
<path fill-rule="evenodd" clip-rule="evenodd" d="M387.722 96.1733C268.828 96.1733 172.445 192.557 172.445 311.451V319.413C172.445 322.686 172.518 325.942 172.662 329.179C173.056 337.99 165.689 345.46 156.869 345.46C70.2327 345.46 0 415.693 0 502.329V508.131C0 594.767 70.2327 665 156.869 665C225.365 665 283.608 621.099 304.995 559.9C311.535 541.184 331.669 528.269 351.211 531.608C363.078 533.635 375.277 534.691 387.722 534.691C506.617 534.691 603 438.308 603 319.413V311.451C603 192.556 506.617 96.1733 387.722 96.1733Z" fill="white"/>
<path fill-rule="evenodd" clip-rule="evenodd" d="M366.5 130C259.633 130 173 216.633 173 323.5C173 327.366 173.113 331.206 173.337 335.016C173.811 343.083 167.08 350 159 350C81.1279 350 18 413.128 18 491C18 568.872 81.1279 632 159 632C218.625 632 269.606 594.99 290.224 542.69C297.434 524.402 317.45 511.762 336.879 514.747C346.536 516.23 356.428 517 366.5 517C473.367 517 560 430.367 560 323.5C560 216.633 473.367 130 366.5 130Z" fill="#FF6B08"/>
<circle cx="164" cy="39" r="39" fill="#FF6B08"/>
<circle cx="316" cy="39" r="13" fill="#FF6B08"/>
</svg>
