<svg width="44" height="44" viewBox="0 0 44 44" fill="none" xmlns="http://www.w3.org/2000/svg">
<rect width="44" height="44" rx="22" fill="#FF6B08"/>
<g clip-path="url(#clip0)">
<path d="M32.5417 32.0833H11.4583C11.2053 32.0833 11 32.2886 11 32.5416C11 32.7946 11.2053 33 11.4583 33H32.5417C32.7947 33 33 32.7946 33 32.5416C33 32.2886 32.7947 32.0833 32.5417 32.0833Z" fill="white"/>
<path d="M15.1251 26.5833H12.3751C12.1221 26.5833 11.9167 26.7887 11.9167 27.0417V32.5417C11.9167 32.7946 12.1221 33 12.3751 33H15.1251C15.3781 33 15.5834 32.7946 15.5834 32.5416V27.0416C15.5834 26.7886 15.3781 26.5833 15.1251 26.5833ZM14.6667 32.0833H12.8334V27.5H14.6668V32.0833H14.6667Z" fill="white"/>
<path d="M20.6251 22H17.8751C17.6221 22 17.4167 22.2053 17.4167 22.4583V32.5417C17.4167 32.7947 17.6221 33 17.8751 33H20.6251C20.8781 33 21.0834 32.7947 21.0834 32.5417V22.4583C21.0834 22.2053 20.8781 22 20.6251 22ZM20.1667 32.0833H18.3334V22.9167H20.1667V32.0833Z" fill="white"/>
<path d="M26.1251 23.8333H23.3751C23.1221 23.8333 22.9167 24.0387 22.9167 24.2917V32.5417C22.9167 32.7947 23.1221 33 23.3751 33H26.1251C26.3781 33 26.5834 32.7947 26.5834 32.5417V24.2917C26.5834 24.0386 26.3781 23.8333 26.1251 23.8333ZM25.6667 32.0833H23.8334V24.75H25.6667V32.0833Z" fill="white"/>
<path d="M31.6251 18.3334H28.8751C28.6221 18.3334 28.4167 18.5387 28.4167 18.7917V32.5417C28.4167 32.7947 28.6221 33.0001 28.8751 33.0001H31.6251C31.8781 33.0001 32.0834 32.7947 32.0834 32.5417V18.7917C32.0834 18.5387 31.8781 18.3334 31.6251 18.3334ZM31.1667 32.0834H29.3334V19.25H31.1667V32.0834Z" fill="white"/>
<path d="M13.7501 19.25C12.739 19.25 11.9167 20.0723 11.9167 21.0833C11.9167 22.0944 12.739 22.9167 13.7501 22.9167C14.7612 22.9167 15.5834 22.0944 15.5834 21.0833C15.5834 20.0723 14.7612 19.25 13.7501 19.25ZM13.7501 22C13.2441 22 12.8334 21.5884 12.8334 21.0833C12.8334 20.5783 13.2441 20.1667 13.7501 20.1667C14.2561 20.1667 14.6667 20.5783 14.6667 21.0833C14.6667 21.5884 14.2561 22 13.7501 22Z" fill="white"/>
<path d="M19.2501 14.6666C18.239 14.6666 17.4167 15.4889 17.4167 16.5C17.4167 17.5111 18.239 18.3333 19.2501 18.3333C20.2612 18.3333 21.0834 17.5111 21.0834 16.5C21.0834 15.4889 20.2612 14.6666 19.2501 14.6666ZM19.2501 17.4166C18.7441 17.4166 18.3334 17.005 18.3334 16.5C18.3334 15.9949 18.7441 15.5833 19.2501 15.5833C19.7561 15.5833 20.1667 15.9949 20.1667 16.5C20.1667 17.0051 19.7561 17.4166 19.2501 17.4166Z" fill="white"/>
<path d="M24.7501 16.5C23.739 16.5 22.9167 17.3223 22.9167 18.3333C22.9167 19.3444 23.739 20.1667 24.7501 20.1667C25.7612 20.1667 26.5834 19.3444 26.5834 18.3333C26.5834 17.3223 25.7612 16.5 24.7501 16.5ZM24.7501 19.25C24.2441 19.25 23.8334 18.8384 23.8334 18.3333C23.8334 17.8283 24.2441 17.4167 24.7501 17.4167C25.2561 17.4167 25.6667 17.8283 25.6667 18.3333C25.6667 18.8384 25.2561 19.25 24.7501 19.25Z" fill="white"/>
<path d="M30.2501 11C29.239 11 28.4167 11.8223 28.4167 12.8333C28.4167 13.8444 29.239 14.6667 30.2501 14.6667C31.2612 14.6667 32.0834 13.8444 32.0834 12.8333C32.0834 11.8223 31.2612 11 30.2501 11ZM30.2501 13.75C29.7441 13.75 29.3334 13.3384 29.3334 12.8333C29.3334 12.3283 29.7441 11.9167 30.2501 11.9167C30.7561 11.9167 31.1667 12.3283 31.1667 12.8333C31.1667 13.3384 30.7561 13.75 30.2501 13.75Z" fill="white"/>
<path d="M29.603 13.4805C29.4242 13.3017 29.1336 13.3017 28.9549 13.4805L25.3982 17.0372C25.2195 17.2159 25.2195 17.5065 25.3982 17.6852C25.4881 17.7742 25.6054 17.8191 25.7227 17.8191C25.8391 17.8191 25.9565 17.7751 26.0463 17.6852L29.603 14.1286C29.7817 13.9498 29.7817 13.6592 29.603 13.4805Z" fill="white"/>
<path d="M23.6417 17.2755L20.6974 16.4359C20.4508 16.3644 20.2006 16.5074 20.1318 16.7512C20.0621 16.9951 20.2033 17.2481 20.4462 17.3177L23.3905 18.1574C23.4327 18.1693 23.4749 18.1748 23.5161 18.1748C23.716 18.1748 23.8993 18.0437 23.957 17.842C24.0267 17.5991 23.8856 17.3452 23.6417 17.2755Z" fill="white"/>
<path d="M18.5349 17.0711C18.3772 16.8731 18.0894 16.841 17.8914 16.9977L14.4355 19.7532C14.2375 19.9118 14.2045 20.1996 14.3631 20.3976C14.4539 20.5113 14.5877 20.57 14.7215 20.57C14.8214 20.57 14.9223 20.537 15.0066 20.471L18.4625 17.7155C18.6605 17.5569 18.6935 17.2691 18.5349 17.0711Z" fill="white"/>
</g>
<defs>
<clipPath id="clip0">
<rect width="22" height="22" fill="white" transform="translate(11 11)"/>
</clipPath>
</defs>
</svg>
