<svg width="270" height="194" fill="none" xmlns="http://www.w3.org/2000/svg">
 <g transform="scale(-1 1) translate(-270,0)">
<path d="M-20.643 156.065c-49.126-3.791-66.13-89.1-79.357-89.1V230h752V112.463c-15.116-80.38-42.827-94.156-54.794-90.997-58.951 4.55-47.236 134.599-100.141 134.599-40.812 0-64.241-102.37-96.361-102.37-37.789 0-75.578 140.286-124.704 140.286C194.754 193.98 164.523-12.657 98.392.613 58.714.613 36.04 156.065-20.643 156.065z" fill="#fff" fill-opacity=".3"/><path d="M572.643 156.065c49.126-3.791 66.131-89.1 79.357-89.1V230h-752V112.463c15.116-80.38 42.828-94.156 54.794-90.997 58.95 4.55 47.236 134.599 100.14 134.599 40.813 0 64.242-102.37 96.362-102.37 37.789 0 75.578 140.286 124.704 140.286C357.246 193.98 387.477-12.657 453.608.613c39.678 0 62.352 155.452 119.035 155.452z" fill="#fff" fill-opacity=".2"/>
</g>
</svg>