<svg width="270" height="194" fill="none" xmlns="http://www.w3.org/2000/svg"><path d="M-230.643 156.065c-49.126-3.791-66.131-89.1-79.357-89.1V230h752V112.463c-15.116-80.38-42.827-94.156-54.794-90.997-58.951 4.55-47.236 134.599-100.141 134.599-40.812 0-64.241-102.37-96.361-102.37-37.789 0-75.578 140.286-124.704 140.286C-15.246 193.98-45.477-12.657-111.608.613c-39.678 0-62.352 155.452-119.035 155.452z" fill="#fff" fill-opacity=".3"/><path d="M362.643 156.065c49.126-3.791 66.131-89.1 79.357-89.1V230h-752V112.463c15.116-80.38 42.827-94.156 54.794-90.997 58.951 4.55 47.236 134.599 100.141 134.599 40.812 0 64.24-102.37 96.362-102.37C-20.915 53.694 16.874 193.98 66 193.98 147.246 193.98 177.477-12.657 243.608.613c39.678 0 62.352 155.452 119.035 155.452z" fill="#fff" fill-opacity=".2"/></svg>