<?xml version="1.0" encoding="UTF-8"?>
<svg viewBox="0 0 140 42" xmlns="http://www.w3.org/2000/svg">
<path d="m47.529 15.764c-2.8514 0-5.0017 2.2466-5.0017 5.2301s2.1729 5.2301 5.0532 5.2301c2.8505 0 5.0008-2.2466 5.0008-5.2301s-2.172-5.2301-5.0523-5.2301zm14.45-15.551h-61.98v41.787h61.98l14.637-20.849-14.637-20.938zm-29.571 27.397-0.1436 0.1213c-2.3139 1.9501-4.9927 2.9386-7.9616 2.9386-2.8072 0-5.3397-0.975-7.1304-2.7454-1.7745-1.7559-2.7529-4.2173-2.7529-6.9303 0-2.6061 0.9938-5.0324 2.8008-6.8297 1.8332-1.8342 4.3368-2.8442 7.0608-2.8442 3.0719 0 5.196 0.7404 7.3445 2.5548l0.3063 0.2588-3.0204 3.6144-0.3135-0.2597c-1.3173-1.0919-2.4684-1.7245-4.4515-1.7245-2.6301 0-4.7696 2.3463-4.7696 5.2301 0 3.0608 2.1251 5.2813 5.0524 5.2813 1.2884 0 2.434-0.3046 3.3275-0.8843v-1.9437h-3.9898v-4.2165h8.641v8.379zm22.295 0.2184c-1.8593 1.8323-4.4072 2.8415-7.1737 2.8415s-5.3089-1.002-7.1493-2.8227c-1.8125-1.7928-2.8108-4.2236-2.8108-6.853-0.0082-1.2696 0.2385-2.5281 0.7257-3.7016 0.4871-1.1736 1.2049-2.2386 2.1113-3.1326 1.8593-1.8324 4.4072-2.8371 7.1746-2.8371s5.308 1.0029 7.1484 2.8227c1.8125 1.7928 2.8108 4.2236 2.8108 6.8531 0.0077 1.2688-0.2393 2.5265-0.7264 3.6992-0.4871 1.1728-1.2047 2.237-2.1106 3.1305z" fill="#181C27"/>
<path d="m14.803 21.028c0-5.0072 3.9212-9.1086 9.2843-9.1086 3.1876 0 5.1102 0.8555 6.9569 2.4155l-2.4539 2.944c-1.366-1.1323-2.5803-1.7865-4.6295-1.7865-2.8333 0-5.0848 2.491-5.0848 5.5356 0 3.2208 2.2262 5.586 5.3631 5.586 1.4167 0 2.6816-0.3522 3.6682-1.0568v-2.5162h-3.9212v-3.3501h7.6906v7.6492c-1.8215 1.5349-4.3259 2.793-7.5641 2.793-5.5149 0-9.3096-3.8498-9.3096-9.1051z" fill="#fff" stroke="#fff" stroke-miterlimit="10"/>
<path d="m38.294 21.151c0-5.0073 3.9753-9.1087 9.436-9.1087 5.4608 0 9.3855 4.0511 9.3855 9.1087 0 5.0072-3.9753 9.1087-9.4361 9.1087-5.4607 0-9.3854-4.0511-9.3854-9.1087zm14.749 0c0-3.0195-2.2262-5.5357-5.3632-5.5357-3.1369 0-5.3125 2.4659-5.3125 5.5357 0 3.0194 2.2262 5.5357 5.3631 5.5357 3.137 0 5.3126-2.4659 5.3126-5.5357z" fill="#fff" stroke="#fff" stroke-miterlimit="10"/>
<path d="M140 0H78.0972V41.787H140V0Z" fill="#FF6C00"/>
<path d="m97.169 12.524h3.8961v17.614h-3.8961v-17.614z" fill="#fff" stroke="#fff" stroke-miterlimit="10"/>
<path d="m112.59 16.097h-5.389v-3.573h14.673v3.573h-5.389v14.04h-3.895v-14.04z" fill="#fff" stroke="#fff" stroke-miterlimit="10"/>
</svg>
