<svg width="86" height="86" fill="none" xmlns="http://www.w3.org/2000/svg"><g filter="url(#filter0_d)"><path fill-rule="evenodd" clip-rule="evenodd" d="M43 20c-9.389 0-17 7.611-17 17s7.611 17 17 17 17-7.611 17-17-7.611-17-17-17zm1.555 8.847h-3.1v.521h-1.119v-.594c0-.577.47-1.047 1.046-1.047h3.247c.577 0 1.046.47 1.046 1.047v.594h-1.12v-.521zm3.705 4.956H37.752a.493.493 0 00-.492.533L38.14 45.2a1.167 1.167 0 001.162 1.074h7.409c.608 0 1.114-.467 1.163-1.074l.878-10.863a.493.493 0 00-.491-.533zm-7.964 11.311h-.014l-.021.001a.56.56 0 01-.558-.525l-.55-8.918a.56.56 0 111.117-.07l.55 8.919a.56.56 0 01-.524.593zm3.276-.558a.56.56 0 01-1.12 0v-8.919a.56.56 0 111.12 0v8.919zm3.287-8.886l-.526 8.918a.56.56 0 11-1.117-.066l.526-8.918a.559.559 0 111.117.066zm2.969-4.696l.367 1.102a.461.461 0 01-.438.608H36.254a.461.461 0 01-.438-.608l.368-1.102a.712.712 0 01.675-.486h12.294c.306 0 .578.196.675.486z" fill="#fff"/></g><defs><filter id="filter0_d" x="0" y="0" width="86" height="86" filterUnits="userSpaceOnUse" color-interpolation-filters="sRGB"><feFlood flood-opacity="0" result="BackgroundImageFix"/><feColorMatrix in="SourceAlpha" values="0 0 0 0 0 0 0 0 0 0 0 0 0 0 0 0 0 0 127 0"/><feOffset dy="6"/><feGaussianBlur stdDeviation="13"/><feColorMatrix values="0 0 0 0 0 0 0 0 0 0.0176944 0 0 0 0 0.379167 0 0 0 0.1 0"/><feBlend in2="BackgroundImageFix" result="effect1_dropShadow"/><feBlend in="SourceGraphic" in2="effect1_dropShadow" result="shape"/></filter></defs></svg>